<?xml version="1.0" standalone="no"?>
<!DOCTYPE svg PUBLIC "-//W3C//DTD SVG 20010904//EN"
 "http://www.w3.org/TR/2001/REC-SVG-20010904/DTD/svg10.dtd">
<svg version="1.0" xmlns="http://www.w3.org/2000/svg"
 width="512.000000pt" height="512.000000pt" viewBox="0 0 512.000000 512.000000"
 preserveAspectRatio="xMidYMid meet">

<g transform="translate(0.000000,512.000000) scale(0.100000,-0.100000)"
fill="#000000" stroke="none">
<path d="M490 3503 c0 -884 4 -1484 10 -1558 54 -637 400 -1209 946 -1561 194
-125 468 -235 714 -285 105 -22 139 -24 390 -24 262 1 281 2 401 28 511 111
930 375 1235 779 200 265 319 542 391 903 16 83 18 203 20 1623 l4 1532 -2056
0 -2055 0 0 -1437z m4080 982 l0 -425 -2025 0 -2025 0 0 425 0 425 2025 0
2025 0 0 -425z m-2641 -1100 c12 -104 53 -482 91 -839 38 -357 71 -650 73
-652 3 -4 160 -18 422 -39 110 -9 306 -24 435 -35 129 -11 323 -26 430 -35
107 -9 301 -24 430 -35 129 -11 303 -24 385 -31 164 -12 246 -26 165 -28 -24
-1 -150 -10 -280 -21 -327 -27 -554 -46 -845 -70 -468 -38 -600 -49 -861 -71
l-261 -22 -21 -111 c-80 -429 -204 -1074 -209 -1086 -3 -8 -11 17 -18 55 -17
93 -53 289 -100 555 -34 191 -106 574 -108 576 -1 1 -29 6 -62 12 -33 6 -159
32 -280 57 -377 78 -558 116 -603 124 -59 12 -61 18 -10 26 24 4 99 17 168 30
257 48 519 96 648 119 74 13 135 26 137 28 5 5 32 273 90 908 9 91 25 260 36
375 32 346 48 513 59 650 7 72 14 137 17 145 5 14 18 -90 72 -585z"/>
</g>
</svg>
