<?xml version="1.0" encoding="UTF-8"?>
<svg version="1.1" xmlns="http://www.w3.org/2000/svg" width="1264" height="1226">
<path d="M0 0 C26.84128955 25.3486771 45.23061708 63.41022535 46.72827148 100.5078125 C47.69363783 141.44984489 37.37057404 173.08275666 15.60595703 207.47802734 C14.5912795 209.09238785 13.57693643 210.70695863 12.56298828 212.32177734 C10.6232222 215.4042882 8.67563039 218.48168455 6.72314453 221.55615234 C3.22066749 227.07643408 -0.24397268 232.62015438 -3.70654297 238.16552734 C-4.65194946 239.6794104 -4.65194946 239.6794104 -5.61645508 241.22387695 C-6.90132641 243.28166212 -8.18607511 245.33952386 -9.47070312 247.39746094 C-12.6099352 252.42549221 -15.75211448 257.45168075 -18.89404297 262.47802734 C-20.1440576 264.4780182 -21.39405759 266.4780182 -22.64404297 268.47802734 C-30.14404297 280.47802734 -37.64404297 292.47802734 -45.14404297 304.47802734 C-45.76303467 305.46843018 -46.38202637 306.45883301 -47.01977539 307.47924805 C-48.26727544 309.47521563 -49.51483385 311.47114674 -50.76245117 313.46704102 C-53.92618479 318.52843651 -57.08883858 323.59050128 -60.24951172 328.65380859 C-66.42262044 338.54082013 -72.61030053 348.41787625 -78.84277344 358.26757812 C-84.75645837 367.6205946 -90.61108321 377.01051865 -96.47070312 386.39746094 C-99.6099352 391.42549221 -102.75211448 396.45168075 -105.89404297 401.47802734 C-107.1440576 403.4780182 -108.39405759 405.4780182 -109.64404297 407.47802734 C-132.14404297 443.47802734 -132.14404297 443.47802734 -134.0222168 446.48291016 C-135.26187185 448.46648759 -136.50129558 450.45020962 -137.74047852 452.43408203 C-141.02179311 457.68660669 -144.30805488 462.9359566 -147.60107422 468.18115234 C-148.63167969 469.82470703 -148.63167969 469.82470703 -149.68310547 471.50146484 C-151.00324728 473.60655583 -152.32479682 475.71076485 -153.64794922 477.81396484 C-154.24091797 478.76013672 -154.83388672 479.70630859 -155.44482422 480.68115234 C-155.96729736 481.51291992 -156.48977051 482.3446875 -157.02807617 483.20166016 C-158.26011695 485.25484125 -159.35883183 487.32022718 -160.39404297 489.47802734 C-149.13298757 495.88706248 -137.85667951 502.25664133 -126.45654297 508.41552734 C-115.71841251 514.23405332 -105.17680508 520.36440006 -94.65429688 526.5625 C-91.2226079 528.57875219 -87.78378293 530.58237424 -84.34326172 532.58349609 C-68.20850914 541.97668932 -52.24532648 551.6115627 -36.39404297 561.47802734 C-35.3428125 562.13077637 -34.29158203 562.78352539 -33.20849609 563.45605469 C-21.13874034 570.95230145 -9.10545536 578.4983974 2.77783203 586.28759766 C4.55594597 587.44546138 6.34471742 588.58476956 8.13720703 589.72021484 C20.37598044 597.59224143 20.37598044 597.59224143 22.21923828 603.41552734 C23.13757458 608.31332096 22.372009 611.42115112 19.60595703 615.47802734 C17.39130932 618.02822774 15.81089659 619.29624417 12.43261719 619.8059082 C5.61479527 620.01102121 1.62157823 618.45862441 -3.95654297 614.66552734 C-5.11416138 613.91891846 -5.11416138 613.91891846 -6.29516602 613.15722656 C-8.67503995 611.61720827 -11.03447305 610.04892046 -13.39404297 608.47802734 C-14.79336638 607.56782817 -16.19434712 606.66017063 -17.59716797 605.75537109 C-19.67062129 604.41789008 -21.74313458 603.07920884 -23.81103516 601.7331543 C-32.9037026 595.81795405 -42.14476316 590.14406204 -51.39404297 584.47802734 C-52.45026855 583.8305957 -53.50649414 583.18316406 -54.59472656 582.51611328 C-94.56125144 558.05157869 -135.24444503 534.88925894 -176.39404297 512.47802734 C-176.66321533 513.20207764 -176.9323877 513.92612793 -177.2097168 514.67211914 C-178.38099162 517.44710606 -179.73536353 519.8289306 -181.34326172 522.37255859 C-181.93647217 523.31591064 -182.52968262 524.2592627 -183.14086914 525.23120117 C-183.7812915 526.24077881 -184.42171387 527.25035645 -185.08154297 528.29052734 C-186.44625311 530.45711414 -187.81083276 532.62378314 -189.17529297 534.79052734 C-189.87525391 535.89912109 -190.57521484 537.00771484 -191.29638672 538.14990234 C-194.57553483 543.35257309 -197.82703669 548.5724225 -201.08154297 553.79052734 C-205.97865468 561.63107887 -210.8998445 569.4558512 -215.84277344 577.26757812 C-221.75645837 586.6205946 -227.61108321 596.01051865 -233.47070312 605.39746094 C-236.6099352 610.42549221 -239.75211448 615.45168075 -242.89404297 620.47802734 C-244.1440576 622.4780182 -245.39405759 624.4780182 -246.64404297 626.47802734 C-269.14404297 662.47802734 -291.64404297 698.47802734 -314.14404297 734.47802734 C-314.76303467 735.46843018 -315.38202637 736.45883301 -316.01977539 737.47924805 C-317.26727544 739.47521563 -318.51483385 741.47114674 -319.76245117 743.46704102 C-322.92618479 748.52843651 -326.08883858 753.59050128 -329.24951172 758.65380859 C-335.42262044 768.54082013 -341.61030053 778.41787625 -347.84277344 788.26757812 C-353.75645837 797.6205946 -359.61108321 807.01051865 -365.47070312 816.39746094 C-368.6099352 821.42549221 -371.75211448 826.45168075 -374.89404297 831.47802734 C-376.1440576 833.4780182 -377.39405759 835.4780182 -378.64404297 837.47802734 C-401.14404297 873.47802734 -423.64404297 909.47802734 -446.14404297 945.47802734 C-446.76303467 946.46843018 -447.38202637 947.45883301 -448.01977539 948.47924805 C-449.26727544 950.47521563 -450.51483385 952.47114674 -451.76245117 954.46704102 C-454.92618479 959.52843651 -458.08883858 964.59050128 -461.24951172 969.65380859 C-467.41948906 979.53580482 -473.60175217 989.40932799 -479.83398438 999.25219727 C-483.24903678 1004.65071667 -486.63615412 1010.06617391 -490.0144043 1015.48779297 C-493.13274847 1020.48968758 -496.26131325 1025.4851326 -499.39404297 1030.47802734 C-499.95671875 1031.37618164 -500.51939453 1032.27433594 -501.09912109 1033.19970703 C-502.62686389 1035.63104259 -504.16456646 1038.05570162 -505.70654297 1040.47802734 C-506.15650635 1041.19619629 -506.60646973 1041.91436523 -507.07006836 1042.65429688 C-508.12421257 1044.29801227 -509.25154382 1045.89445037 -510.39404297 1047.47802734 C-511.05404297 1047.47802734 -511.71404297 1047.47802734 -512.39404297 1047.47802734 C-512.63251953 1048.46673828 -512.87099609 1049.45544922 -513.11669922 1050.47412109 C-514.38534213 1054.88722565 -516.4811712 1058.61795967 -518.83154297 1062.54052734 C-519.27691406 1063.28439697 -519.72228516 1064.0282666 -520.18115234 1064.79467773 C-532.73117873 1085.32889048 -550.00657757 1102.72246789 -570.39404297 1115.47802734 C-571.04018555 1115.88843262 -571.68632813 1116.29883789 -572.35205078 1116.72167969 C-604.30075196 1136.73216757 -647.29293652 1144.67578877 -684.32373047 1136.51318359 C-685.68255758 1136.17632025 -687.03926613 1135.83082721 -688.39404297 1135.47802734 C-689.17811523 1135.27935059 -689.9621875 1135.08067383 -690.77001953 1134.87597656 C-724.12872377 1126.20167384 -754.31166993 1108.01736334 -775.39404297 1080.47802734 C-776.05146484 1079.64787109 -776.70888672 1078.81771484 -777.38623047 1077.96240234 C-783.50948756 1070.0599347 -788.96965308 1061.71963067 -794.45874023 1053.36987305 C-798.297332 1047.54611438 -802.27115058 1041.86497369 -806.40063477 1036.24438477 C-809.83339967 1031.48055634 -813.04026985 1026.56883084 -816.26904297 1021.66552734 C-820.55144061 1015.19863458 -824.83819542 1008.75583083 -829.39404297 1002.47802734 C-834.65473753 995.22679971 -839.56364582 987.74973373 -844.51123047 980.28271484 C-848.05469043 974.94746758 -851.63304227 969.66210939 -855.39404297 964.47802734 C-860.65473753 957.22679971 -865.56364582 949.74973373 -870.51123047 942.28271484 C-874.05469043 936.94746758 -877.63304227 931.66210939 -881.39404297 926.47802734 C-886.65473753 919.22679971 -891.56364582 911.74973373 -896.51123047 904.28271484 C-900.78162853 897.85294569 -905.16545002 891.54895288 -909.69873047 885.30224609 C-914.14453523 879.07846703 -918.30542249 872.65219217 -922.51123047 866.26513672 C-925.70959589 861.42600984 -928.96019938 856.6536592 -932.39404297 851.97802734 C-936.54283217 846.32890256 -940.41508363 840.51825579 -944.26904297 834.66552734 C-948.55144061 828.19863458 -952.83819542 821.75583083 -957.39404297 815.47802734 C-962.65473753 808.22679971 -967.56364582 800.74973373 -972.51123047 793.28271484 C-976.05469043 787.94746758 -979.63304227 782.66210939 -983.39404297 777.47802734 C-988.65473753 770.22679971 -993.56364582 762.74973373 -998.51123047 755.28271484 C-1002.05469043 749.94746758 -1005.63304227 744.66210939 -1009.39404297 739.47802734 C-1014.65473753 732.22679971 -1019.56364582 724.74973373 -1024.51123047 717.28271484 C-1028.78162853 710.85294569 -1033.16545002 704.54895288 -1037.69873047 698.30224609 C-1042.14453523 692.07846703 -1046.30542249 685.65219217 -1050.51123047 679.26513672 C-1053.70959589 674.42600984 -1056.96019938 669.6536592 -1060.39404297 664.97802734 C-1064.54283217 659.32890256 -1068.41508363 653.51825579 -1072.26904297 647.66552734 C-1076.55144061 641.19863458 -1080.83819542 634.75583083 -1085.39404297 628.47802734 C-1090.65473753 621.22679971 -1095.56364582 613.74973373 -1100.51123047 606.28271484 C-1104.05469043 600.94746758 -1107.63304227 595.66210939 -1111.39404297 590.47802734 C-1116.65473753 583.22679971 -1121.56364582 575.74973373 -1126.51123047 568.28271484 C-1130.05469043 562.94746758 -1133.63304227 557.66210939 -1137.39404297 552.47802734 C-1142.65013895 545.23313829 -1147.558651 537.76487388 -1152.49584961 530.30029297 C-1156.16364284 524.77010822 -1159.89734257 519.32119837 -1163.83154297 513.97802734 C-1188.17061074 480.24636631 -1198.34298553 438.19823778 -1192.26904297 396.97802734 C-1187.0585533 365.350742 -1172.35053945 336.67048554 -1150.39404297 313.47802734 C-1149.57419922 312.59373047 -1148.75435547 311.70943359 -1147.90966797 310.79833984 C-1137.02861853 299.43440359 -1124.33031564 290.71473493 -1110.39404297 283.47802734 C-1109.75273438 283.14174316 -1109.11142578 282.80545898 -1108.45068359 282.45898438 C-1072.38924976 263.80621649 -1029.47697307 261.0511316 -990.81225586 272.94018555 C-946.05519196 287.48568416 -919.76671491 318.28286121 -894.06738281 356.02246094 C-891.34890287 360.01173309 -888.62109583 363.99461312 -885.89404297 367.97802734 C-884.81066293 369.56132872 -883.72732965 371.14466209 -882.64404297 372.72802734 C-881.83966797 373.90365234 -881.83966797 373.90365234 -881.01904297 375.10302734 C-863.14404297 401.22802734 -863.14404297 401.22802734 -861.51660156 403.60668945 C-860.44152312 405.17789573 -859.36632925 406.74902303 -858.29101562 408.32006836 C-855.45539354 412.46327992 -852.62223973 416.60815265 -849.79248047 420.75537109 C-849.20273437 421.61904297 -848.61298828 422.48271484 -848.00537109 423.37255859 C-846.87572468 425.02700137 -845.74678069 426.68192406 -844.61865234 428.33740234 C-844.10882812 429.08376953 -843.59900391 429.83013672 -843.07373047 430.59912109 C-842.62755371 431.25323975 -842.18137695 431.9073584 -841.72167969 432.58129883 C-840.76433623 433.94900779 -839.7594465 435.28386265 -838.7265625 436.59545898 C-837.39404297 438.47802734 -837.39404297 438.47802734 -837.39404297 440.47802734 C-832.41013082 437.27296434 -827.79096418 433.71250626 -823.14404297 430.04052734 C-801.00697358 412.7344262 -777.72097024 396.72569713 -753.64404297 382.22802734 C-752.82307129 381.73294678 -752.00209961 381.23786621 -751.15625 380.7277832 C-745.65813391 377.47802734 -745.65813391 377.47802734 -743.39404297 377.47802734 C-752.84348913 354.69100568 -762.40777494 331.95534785 -772.07843018 309.26135254 C-775.99371326 300.07328242 -779.89924461 290.88107289 -783.80474854 281.68884277 C-785.6271625 277.39968513 -787.45006692 273.11073596 -789.27294922 268.82177734 C-789.8830591 267.38623151 -790.49316679 265.95068475 -791.10327148 264.51513672 C-791.74220337 263.01176758 -791.74220337 263.01176758 -792.39404297 261.47802734 C-800.08708334 265.62553712 -807.69851153 269.90597483 -815.27792358 274.25683594 C-817.12058439 275.31290279 -818.96559647 276.36475199 -820.8112793 277.41552734 C-826.0554266 280.40338333 -831.29278126 283.39516766 -836.45654297 286.52099609 C-837.52835815 287.15847778 -837.52835815 287.15847778 -838.62182617 287.80883789 C-839.86968681 288.55332582 -841.10900272 289.31246927 -842.33618164 290.09057617 C-846.90997912 292.78866689 -851.22049852 293.21448366 -856.39404297 292.47802734 C-860.48954571 290.39304413 -862.69489257 288.71824951 -864.39404297 284.47802734 C-864.76513672 282.11083984 -864.76513672 282.11083984 -864.83154297 279.60302734 C-864.87150391 278.78060547 -864.91146484 277.95818359 -864.95263672 277.11083984 C-863.90120745 272.15515222 -860.9848551 269.54803507 -856.93237305 266.82226562 C-853.84870244 264.97526313 -850.72740054 263.21697474 -847.58154297 261.47802734 C-845.84059951 260.49508998 -844.09966746 259.51213137 -842.35958862 258.52766418 C-840.56674439 257.51484275 -838.77127657 256.50678791 -836.97558594 255.49902344 C-831.33036312 252.32278364 -825.73806737 249.05591792 -820.14404297 245.79052734 C-819.15170654 245.21496094 -818.15937012 244.63939453 -817.13696289 244.04638672 C-816.20601807 243.50433594 -815.27507324 242.96228516 -814.31591797 242.40380859 C-813.50735352 241.93370361 -812.69878906 241.46359863 -811.86572266 240.97924805 C-808.98346402 239.22865457 -806.18893055 237.36434837 -803.39404297 235.47802734 C-803.79606934 234.51316406 -804.1980957 233.54830078 -804.61230469 232.55419922 C-804.88066635 231.91008087 -805.14902802 231.26596252 -805.42552185 230.60232544 C-806.03415281 229.14171454 -806.6429322 227.68116549 -807.25184631 226.22067261 C-808.94663704 222.15504094 -810.6387267 218.08831895 -812.32592773 214.01953125 C-815.36932334 206.68703347 -818.42265606 199.36357334 -821.61669922 192.09521484 C-822.08156738 191.02464844 -822.54643555 189.95408203 -823.02539062 188.85107422 C-823.86836023 186.91618323 -824.72515621 184.9872299 -825.59863281 183.06591797 C-828.52598626 176.29208504 -829.98593085 169.63462347 -827.26904297 162.54052734 C-823.9664241 158.90764659 -820.78501967 157.65506074 -815.95654297 157.04052734 C-811.74087839 157.55824054 -808.67432573 158.83266887 -805.39404297 161.47802734 C-803.626605 163.9240654 -802.57113295 166.5591179 -801.45654297 169.35302734 C-800.93169312 170.59137329 -800.93169312 170.59137329 -800.39624023 171.85473633 C-799.56213027 173.83016924 -798.73848393 175.81003615 -797.92236328 177.79296875 C-796.07009136 182.25913367 -794.16556042 186.70184539 -792.26123047 191.14599609 C-790.78240814 194.60987911 -789.30672162 198.07509132 -787.83154297 201.54052734 C-787.46417023 202.40152039 -787.09679749 203.26251343 -786.71829224 204.14959717 C-785.66558431 206.62254403 -784.62051352 209.09857747 -783.57763672 211.57568359 C-783.25620697 212.3280278 -782.93477722 213.08037201 -782.60360718 213.85551453 C-781.33654523 216.88256949 -780.39404297 219.16200793 -780.39404297 222.47802734 C-768.20962779 215.80121398 -756.17007587 208.89737711 -744.18310547 201.87255859 C-743.24241211 201.32164551 -742.30171875 200.77073242 -741.33251953 200.203125 C-739.25397685 198.98287055 -737.1780563 197.75814447 -735.10400391 196.53027344 C-734.03182617 195.89814941 -732.95964844 195.26602539 -731.85498047 194.61474609 C-730.88093262 194.03813232 -729.90688477 193.46151855 -728.90332031 192.86743164 C-724.58939869 190.47878327 -721.28635236 190.14634535 -716.39404297 190.47802734 C-712.98908424 191.72214688 -710.95486476 192.86112338 -708.51904297 195.54052734 C-706.88698541 199.80201096 -706.6760966 203.97326581 -707.39404297 208.47802734 C-709.36615769 212.41602208 -711.20490438 214.34819354 -715.02294922 216.50146484 C-715.96340088 217.0404541 -716.90385254 217.57944336 -717.87280273 218.13476562 C-718.89043701 218.70179199 -719.90807129 219.26881836 -720.95654297 219.85302734 C-722.0083374 220.45228027 -723.06013184 221.0515332 -724.14379883 221.66894531 C-726.38865994 222.94779979 -728.63622957 224.22190942 -730.88623047 225.49169922 C-734.44353264 227.5012018 -737.98311311 229.5405773 -741.51904297 231.58740234 C-742.39289894 232.09317307 -742.39289894 232.09317307 -743.28440857 232.60916138 C-743.86126907 232.94309906 -744.43812958 233.27703674 -745.0324707 233.62109375 C-749.27535873 236.07697717 -753.52198701 238.52625411 -757.7734375 240.96728516 C-759.39365131 241.90131563 -761.01005218 242.84203893 -762.62011719 243.79345703 C-767.18576898 246.47802734 -767.18576898 246.47802734 -769.39404297 246.47802734 C-769.14460938 247.03635254 -768.89517578 247.59467773 -768.63818359 248.16992188 C-760.76476071 265.83564944 -753.23626454 283.63695625 -745.75531006 301.47132874 C-741.65286886 311.2497052 -737.53307294 321.02075027 -733.40991211 330.79040527 C-732.1688037 333.73184418 -730.92885162 336.67376864 -729.68896484 339.61572266 C-728.91884777 341.44094549 -728.14866848 343.26614207 -727.37841797 345.09130859 C-727.03425842 345.90853897 -726.69009888 346.72576935 -726.33551025 347.56776428 C-724.08350278 352.89937853 -721.76237484 358.19707605 -719.39404297 363.47802734 C-718.84322052 363.22789383 -718.29239807 362.97776031 -717.72488403 362.720047 C-696.8700131 353.27786073 -675.10787818 344.97246353 -652.39404297 341.47802734 C-651.47445801 341.33139648 -650.55487305 341.18476563 -649.60742188 341.03369141 C-582.88356891 330.84935147 -513.18708275 345.13978946 -449.39404297 364.47802734 C-449.12487061 363.75397705 -448.85569824 363.02992676 -448.57836914 362.28393555 C-447.40709432 359.50894863 -446.05272241 357.12712409 -444.44482422 354.58349609 C-443.55500854 353.16846802 -443.55500854 353.16846802 -442.6472168 351.72485352 C-442.00679443 350.71527588 -441.36637207 349.70569824 -440.70654297 348.66552734 C-439.34183283 346.49894055 -437.97725318 344.33227155 -436.61279297 342.16552734 C-435.56285156 340.50263672 -435.56285156 340.50263672 -434.49169922 338.80615234 C-431.21255111 333.6034816 -427.96104924 328.38363219 -424.70654297 323.16552734 C-419.80943126 315.32497582 -414.88824143 307.50020348 -409.9453125 299.68847656 C-404.03162757 290.33546009 -398.17700273 280.94553604 -392.31738281 271.55859375 C-389.17815073 266.53056248 -386.03597146 261.50437394 -382.89404297 256.47802734 C-381.64402833 254.47803649 -380.39402834 252.47803648 -379.14404297 250.47802734 C-361.64404297 222.47802734 -344.14404297 194.47802734 -326.64404297 166.47802734 C-326.02505127 165.48762451 -325.40605957 164.49722168 -324.76831055 163.47680664 C-323.5208105 161.48083906 -322.27325209 159.48490795 -321.02563477 157.48901367 C-317.86190114 152.42761818 -314.69924736 147.3655534 -311.53857422 142.30224609 C-305.3654655 132.41523456 -299.1777854 122.53817843 -292.9453125 112.68847656 C-287.03162757 103.33546009 -281.17700273 93.94553604 -275.31738281 84.55859375 C-271.55786108 78.53705971 -267.79515421 72.51751363 -264.03076172 66.49902344 C-260.83635776 61.39081732 -257.64756764 56.27923993 -254.46826172 51.16162109 C-226.69217911 6.48182804 -195.35100011 -27.62942502 -142.15332031 -40.04492188 C-90.36500661 -51.42167907 -38.6856647 -35.57688419 0 0 Z M-782.39404297 432.47802734 C-783.20744141 433.06471191 -784.02083984 433.65139648 -784.85888672 434.25585938 C-793.28973494 440.35423951 -801.62574148 446.56195702 -809.76904297 453.04052734 C-810.66973511 453.75523193 -810.66973511 453.75523193 -811.58862305 454.484375 C-815.08084398 457.29756687 -818.27863008 460.25176643 -821.39404297 463.47802734 C-811.11755728 479.13157593 -811.11755728 479.13157593 -800.39404297 494.47802734 C-795.88305269 500.69587881 -791.63694197 507.07478683 -787.39404297 513.47802734 C-782.43410951 520.96106484 -777.4027252 528.34840709 -772.13623047 535.61865234 C-766.05922188 544.09189875 -760.30884906 552.8023902 -754.45996094 561.43359375 C-751.53245127 565.74770927 -748.59029973 570.05170094 -745.64404297 574.35302734 C-745.12350342 575.11317139 -744.60296387 575.87331543 -744.06665039 576.65649414 C-743.02940516 578.17097261 -741.99205267 579.68537762 -740.95458984 581.19970703 C-738.26613573 585.12471544 -735.58024802 589.05147955 -732.89404297 592.97802734 C-731.8107213 594.56136866 -730.72738798 596.144702 -729.64404297 597.72802734 C-684.14404297 664.22802734 -684.14404297 664.22802734 -682.51660156 666.60742188 C-681.44243462 668.17681113 -680.36725337 669.74550667 -679.29101562 671.31347656 C-676.43335889 675.47977173 -673.59875536 679.6597301 -670.79248047 683.86083984 C-669.90786133 685.17665039 -669.90786133 685.17665039 -669.00537109 686.51904297 C-667.86998261 688.2087156 -666.74080077 689.90257973 -665.61865234 691.60107422 C-665.10882812 692.35710937 -664.59900391 693.11314453 -664.07373047 693.89208984 C-663.62755371 694.56191895 -663.18137695 695.23174805 -662.72167969 695.921875 C-661.37539691 697.77117066 -661.37539691 697.77117066 -658.39404297 698.47802734 C-658.01820068 697.87667969 -657.6423584 697.27533203 -657.25512695 696.65576172 C-631.38476562 655.26318359 -605.5144043 613.87060547 -579.64404297 572.47802734 C-579.02505127 571.48762451 -578.40605957 570.49722168 -577.76831055 569.47680664 C-576.5208105 567.48083906 -575.27325209 565.48490795 -574.02563477 563.48901367 C-570.86190114 558.42761818 -567.69924736 553.3655534 -564.53857422 548.30224609 C-558.3654655 538.41523456 -552.1777854 528.53817843 -545.9453125 518.68847656 C-540.03162757 509.33546009 -534.17700273 499.94553604 -528.31738281 490.55859375 C-525.17815073 485.53056248 -522.03597146 480.50437394 -518.89404297 475.47802734 C-517.64402833 473.47803649 -516.39402834 471.47803648 -515.14404297 469.47802734 C-492.64404297 433.47802734 -492.64404297 433.47802734 -490.76586914 430.47314453 C-489.52621409 428.48956709 -488.28679036 426.50584507 -487.04760742 424.52197266 C-483.76629283 419.26944799 -480.48003106 414.02009809 -477.18701172 408.77490234 C-476.49994141 407.67919922 -475.81287109 406.58349609 -475.10498047 405.45458984 C-473.78483866 403.34949885 -472.46328912 401.24528983 -471.14013672 399.14208984 C-470.54716797 398.19591797 -469.95419922 397.24974609 -469.34326172 396.27490234 C-468.559552 395.02725098 -468.559552 395.02725098 -467.76000977 393.75439453 C-466.52796899 391.70121344 -465.4292541 389.63582751 -464.39404297 387.47802734 C-496.91396679 377.95813436 -529.78798613 370.85064955 -563.39404297 366.47802734 C-564.8369873 366.28104248 -564.8369873 366.28104248 -566.30908203 366.08007812 C-647.99353025 355.2425248 -717.2928804 385.40629938 -782.39404297 432.47802734 Z " fill="#373736" transform="translate(1208.39404296875,76.52197265625)"/>
<path d="M0 0 C26.84128955 25.3486771 45.23061708 63.41022535 46.72827148 100.5078125 C47.69363783 141.44984489 37.37057404 173.08275666 15.60595703 207.47802734 C14.5912795 209.09238785 13.57693643 210.70695863 12.56298828 212.32177734 C10.6232222 215.4042882 8.67563039 218.48168455 6.72314453 221.55615234 C3.22066749 227.07643408 -0.24397268 232.62015438 -3.70654297 238.16552734 C-4.33681396 239.17478271 -4.96708496 240.18403809 -5.61645508 241.22387695 C-6.90132641 243.28166212 -8.18607511 245.33952386 -9.47070312 247.39746094 C-12.6099352 252.42549221 -15.75211448 257.45168075 -18.89404297 262.47802734 C-20.1440576 264.4780182 -21.39405759 266.4780182 -22.64404297 268.47802734 C-30.14404297 280.47802734 -37.64404297 292.47802734 -45.14404297 304.47802734 C-45.76303467 305.46843018 -46.38202637 306.45883301 -47.01977539 307.47924805 C-48.26727544 309.47521563 -49.51483385 311.47114674 -50.76245117 313.46704102 C-53.92618479 318.52843651 -57.08883858 323.59050128 -60.24951172 328.65380859 C-66.42262044 338.54082013 -72.61030053 348.41787625 -78.84277344 358.26757812 C-84.75645837 367.6205946 -90.61108321 377.01051865 -96.47070312 386.39746094 C-99.6099352 391.42549221 -102.75211448 396.45168075 -105.89404297 401.47802734 C-107.1440576 403.4780182 -108.39405759 405.4780182 -109.64404297 407.47802734 C-132.14404297 443.47802735 -132.14404297 443.47802735 -134.0222168 446.48291016 C-135.26187185 448.46648759 -136.50129558 450.45020962 -137.74047852 452.43408203 C-141.02179311 457.68660669 -144.30805488 462.9359566 -147.60107422 468.18115234 C-148.28814453 469.27685547 -148.97521484 470.37255859 -149.68310547 471.50146484 C-151.00324728 473.60655583 -152.32479682 475.71076485 -153.64794922 477.81396484 C-154.53740234 479.23322266 -154.53740234 479.23322266 -155.44482422 480.68115234 C-156.22853394 481.92880371 -156.22853394 481.92880371 -157.02807617 483.20166016 C-158.26011695 485.25484125 -159.35883183 487.32022718 -160.39404297 489.47802734 C-149.13298757 495.88706248 -137.85667951 502.25664133 -126.45654297 508.41552734 C-115.71841251 514.23405332 -105.17680508 520.36440006 -94.65429688 526.5625 C-91.2226079 528.57875219 -87.78378293 530.58237424 -84.34326172 532.58349609 C-68.20850914 541.97668932 -52.24532648 551.6115627 -36.39404297 561.47802734 C-35.3428125 562.13077637 -34.29158203 562.78352539 -33.20849609 563.45605469 C-21.13874034 570.95230145 -9.10545536 578.4983974 2.77783203 586.28759766 C4.55594597 587.44546138 6.34471742 588.58476956 8.13720703 589.72021484 C20.37598044 597.59224143 20.37598044 597.59224143 22.21923828 603.41552734 C23.13757458 608.31332096 22.372009 611.42115112 19.60595703 615.47802734 C17.39130932 618.02822774 15.81089659 619.29624417 12.43261719 619.8059082 C5.61479527 620.01102121 1.62157823 618.45862441 -3.95654297 614.66552734 C-4.72828857 614.16778809 -5.50003418 613.67004883 -6.29516602 613.15722656 C-8.67503995 611.61720827 -11.03447305 610.04892046 -13.39404297 608.47802734 C-14.79336638 607.56782817 -16.19434712 606.66017063 -17.59716797 605.75537109 C-19.67062129 604.41789008 -21.74313458 603.07920884 -23.81103516 601.7331543 C-32.9037026 595.81795405 -42.14476316 590.14406204 -51.39404297 584.47802734 C-52.45026855 583.8305957 -53.50649414 583.18316406 -54.59472656 582.51611328 C-94.56125144 558.05157869 -135.24444503 534.88925894 -176.39404297 512.47802734 C-176.79780151 513.56410278 -176.79780151 513.56410278 -177.2097168 514.67211914 C-178.38099162 517.44710606 -179.73536353 519.8289306 -181.34326172 522.37255859 C-181.93647217 523.31591064 -182.52968262 524.2592627 -183.14086914 525.23120117 C-183.7812915 526.24077881 -184.42171387 527.25035645 -185.08154297 528.29052734 C-186.44625311 530.45711414 -187.81083276 532.62378314 -189.17529297 534.79052734 C-189.87525391 535.89912109 -190.57521484 537.00771484 -191.29638672 538.14990234 C-194.57553483 543.35257309 -197.82703669 548.5724225 -201.08154297 553.79052734 C-205.97865468 561.63107887 -210.8998445 569.4558512 -215.84277344 577.26757812 C-221.75645837 586.6205946 -227.61108321 596.01051865 -233.47070312 605.39746094 C-236.6099352 610.42549221 -239.75211448 615.45168075 -242.89404297 620.47802734 C-244.1440576 622.4780182 -245.39405759 624.4780182 -246.64404297 626.47802734 C-269.14404297 662.47802734 -291.64404297 698.47802734 -314.14404297 734.47802734 C-315.07253052 735.96363159 -315.07253052 735.96363159 -316.01977539 737.47924805 C-317.26727544 739.47521563 -318.51483385 741.47114674 -319.76245117 743.46704102 C-322.92618479 748.52843651 -326.08883858 753.59050128 -329.24951172 758.65380859 C-335.42262044 768.54082013 -341.61030053 778.41787625 -347.84277344 788.26757812 C-353.75645837 797.6205946 -359.61108321 807.01051865 -365.47070312 816.39746094 C-368.6099352 821.42549221 -371.75211448 826.45168075 -374.89404297 831.47802734 C-376.1440576 833.4780182 -377.39405759 835.4780182 -378.64404297 837.47802734 C-401.14404297 873.47802734 -423.64404297 909.47802734 -446.14404297 945.47802734 C-446.76303467 946.46843018 -447.38202637 947.45883301 -448.01977539 948.47924805 C-449.26727544 950.47521563 -450.51483385 952.47114674 -451.76245117 954.46704102 C-454.92618479 959.52843651 -458.08883858 964.59050128 -461.24951172 969.65380859 C-467.41895979 979.53495713 -473.60258729 989.40640457 -479.83178711 999.25 C-485.80689029 1008.69951133 -491.72170713 1018.1867441 -497.64160156 1027.67089844 C-500.20328109 1031.7742965 -502.76736591 1035.8761897 -505.33154297 1039.97802734 C-506.13233806 1041.2592687 -506.93312099 1042.54051764 -507.73388672 1043.82177734 C-508.28173828 1044.69833984 -508.82958984 1045.57490234 -509.39404297 1046.47802734 C-510.84562368 1042.12328522 -508.92440244 1038.98378553 -507.39404297 1034.85302734 C-499.89366213 1013.31742948 -496.4761501 990.49856063 -492.68310547 968.07568359 C-492.42773042 966.5717508 -492.42773042 966.5717508 -492.16719627 965.03743553 C-488.5435122 943.67420398 -485.15052697 922.27590384 -481.7904892 900.86989689 C-470.58452215 829.48720866 -458.76943083 758.29741118 -444.39404297 687.47802734 C-444.2521907 686.77883682 -444.11033844 686.0796463 -443.96418762 685.35926819 C-426.06849107 597.22131576 -404.61301078 509.82106153 -259.07254028 74.11216736 C-257.46123678 70.13097505 -255.86100982 66.1456544 -254.27319336 62.1550293 C-253.73708183 60.80878731 -253.73708183 60.80878731 -253.19013977 59.43534851 C-252.50233987 57.70680904 -251.8158064 55.97776488 -251.13078308 54.24812317 C-249.02864536 48.96794463 -246.78940567 43.78306178 -244.30419922 38.66943359 C-243.29768255 36.51552959 -243.29768255 36.51552959 -243.09716797 34.19287109 C-242.01772378 30.02501715 -239.57705224 26.9419606 -237.08154297 23.47802734 C-236.2816394 22.35678467 -236.2816394 22.35678467 -235.46557617 21.21289062 C-230.29663879 14.10626479 -224.53092908 7.74988896 -218.39404297 1.47802734 C-217.78302734 0.81673828 -217.17201172 0.15544922 -216.54248047 -0.52587891 C-158.86776246 -61.75199581 -58.45340023 -53.75608423 0 0 Z " fill="#9FC63B" transform="translate(1208.39404296875,76.52197265625)"/>
<path d="M0 0 C17.04489172 14.81526733 29.03091307 33.58454978 41.64599609 52.10986328 C44.36447604 56.09913543 47.09228307 60.08201546 49.81933594 64.06542969 C50.90271597 65.64873107 51.98604926 67.23206443 53.06933594 68.81542969 C53.87371094 69.99105469 53.87371094 69.99105469 54.69433594 71.19042969 C72.56933594 97.31542969 72.56933594 97.31542969 74.19677734 99.6940918 C75.27185579 101.26529807 76.34704965 102.83642538 77.42236328 104.4074707 C80.25798537 108.55068226 83.09113918 112.69555499 85.92089844 116.84277344 C86.51064453 117.70644531 87.10039062 118.57011719 87.70800781 119.45996094 C88.83765423 121.11440372 89.96659821 122.7693264 91.09472656 124.42480469 C91.85946289 125.54435547 91.85946289 125.54435547 92.63964844 126.68652344 C93.0858252 127.34064209 93.53200195 127.99476074 93.99169922 128.66870117 C94.94461574 130.03008559 95.94864651 131.35622268 96.98339844 132.65649414 C98.31933594 134.56542969 98.31933594 134.56542969 98.37402344 136.98730469 C96.90786865 140.57123862 94.40834611 142.48239917 91.44433594 144.81542969 C90.56249634 145.53484741 90.56249634 145.53484741 89.6628418 146.26879883 C87.89028588 147.71206665 86.10568443 149.13929347 84.31933594 150.56542969 C82.50510871 152.04247737 80.69248092 153.52149288 78.88183594 155.00292969 C77.99625 155.72480469 77.11066406 156.44667969 76.19824219 157.19042969 C67.51960054 164.35001465 59.05232615 171.73523124 50.76074219 179.33886719 C48.65778761 181.25676176 46.53264438 183.13919014 44.38183594 185.00292969 C39.45419141 189.28827432 34.66529952 193.72482233 29.86181641 198.14794922 C28.40433611 199.48731779 26.94205884 200.82146094 25.47949219 202.15527344 C22.99407201 204.42249486 20.51601568 206.6973899 18.04255676 208.97764587 C16.94074358 209.99286175 15.83781334 211.00686748 14.73344421 212.01930237 C-0.10348443 225.65488743 -14.26080974 239.99229237 -28.49511719 254.24951172 C-32.10795337 257.86809347 -35.72532987 261.48209816 -39.34401131 265.09483337 C-42.16151336 267.90871038 -44.97661551 270.72497864 -47.79101181 273.54196167 C-49.12420396 274.87581516 -50.45812338 276.20894219 -51.79281998 277.54129028 C-60.84027605 286.53466568 -60.84027605 286.53466568 -69.35922241 296.02380371 C-72.29486996 299.44860155 -75.61224619 302.51038636 -78.83691406 305.65917969 C-81.64746376 308.46574703 -84.22509845 311.45369615 -86.82421875 314.45507812 C-89.9753481 318.03718782 -93.27069439 321.48146378 -96.55566406 324.94042969 C-100.91204566 329.54782492 -105.26077833 334.15571993 -109.49316406 338.87792969 C-110.16347656 339.62429688 -110.83378906 340.37066406 -111.52441406 341.13964844 C-112.70586334 342.46877888 -113.88482312 343.80019806 -115.05175781 345.14208984 C-116.52293896 346.83326525 -118.00744659 348.51202363 -119.49316406 350.19042969 C-119.94989502 350.72450439 -120.40662598 351.2585791 -120.87719727 351.80883789 C-122.20019531 353.29199219 -122.20019531 353.29199219 -124.68066406 355.56542969 C-126.00066406 355.56542969 -127.32066406 355.56542969 -128.68066406 355.56542969 C-130.44482422 353.58447266 -130.44482422 353.58447266 -132.21972656 350.80761719 C-133.20585937 349.29167969 -133.20585937 349.29167969 -134.21191406 347.74511719 C-134.90285156 346.65457031 -135.59378906 345.56402344 -136.30566406 344.44042969 C-137.75107326 342.20531447 -139.20494377 339.97578177 -140.65722656 337.74511719 C-141.35493164 336.66713867 -142.05263672 335.58916016 -142.77148438 334.47851562 C-144.98625031 331.09915666 -147.297112 327.82756066 -149.68066406 324.56542969 C-154.94135862 317.31420205 -159.85026692 309.83713608 -164.79785156 302.37011719 C-168.34131152 297.03486993 -171.91966336 291.74951174 -175.68066406 286.56542969 C-180.94135862 279.31420205 -185.85026692 271.83713608 -190.79785156 264.37011719 C-194.34131152 259.03486993 -197.91966336 253.74951174 -201.68066406 248.56542969 C-206.93676004 241.32054063 -211.84527209 233.85227623 -216.7824707 226.38769531 C-220.45026394 220.85751057 -224.18396366 215.40860072 -228.11816406 210.06542969 C-252.45723183 176.33376865 -262.62960662 134.28564013 -256.55566406 93.06542969 C-251.3451744 61.43814434 -236.63716054 32.75788789 -214.68066406 9.56542969 C-213.86082031 8.68113281 -213.04097656 7.79683594 -212.19628906 6.88574219 C-201.31523962 -4.47819406 -188.61693674 -13.19786272 -174.68066406 -20.43457031 C-174.03935547 -20.77085449 -173.39804688 -21.10713867 -172.73730469 -21.45361328 C-116.77425572 -50.40048676 -47.49246253 -40.53830765 0 0 Z " fill="#373736" transform="translate(272.6806640625,380.4345703125)"/>
<path d="M0 0 C4.2909499 2.58613187 5.65061917 5.80197283 7.4609375 10.33984375 C7.98578735 11.5781897 7.98578735 11.5781897 8.52124023 12.84155273 C9.3553502 14.81698564 10.17899654 16.79685256 10.99511719 18.77978516 C12.84738911 23.24595007 14.75192005 27.6886618 16.65625 32.1328125 C18.13507232 35.59669552 19.61075885 39.06190772 21.0859375 42.52734375 C21.45331024 43.38833679 21.82068298 44.24932983 22.19918823 45.13641357 C23.25189616 47.60936043 24.29696695 50.08539387 25.33984375 52.5625 C25.6612735 53.31484421 25.98270325 54.06718842 26.31387329 54.84233093 C27.58093524 57.8693859 28.5234375 60.14882433 28.5234375 63.46484375 C40.70785268 56.78803038 52.7474046 49.88419352 64.734375 42.859375 C65.67506836 42.30846191 66.61576172 41.75754883 67.58496094 41.18994141 C69.66350362 39.96968695 71.73942417 38.74496087 73.81347656 37.51708984 C74.8856543 36.88496582 75.95783203 36.2528418 77.0625 35.6015625 C78.03654785 35.02494873 79.0105957 34.44833496 80.01416016 33.85424805 C84.32808178 31.46559968 87.6311281 31.13316176 92.5234375 31.46484375 C95.92839623 32.70896329 97.96261571 33.84793978 100.3984375 36.52734375 C102.03049506 40.78882737 102.24138387 44.96008222 101.5234375 49.46484375 C99.55132278 53.40283849 97.71257609 55.33500995 93.89453125 57.48828125 C92.95407959 58.02727051 92.01362793 58.56625977 91.04467773 59.12158203 C90.02704346 59.6886084 89.00940918 60.25563477 87.9609375 60.83984375 C86.90914307 61.43909668 85.85734863 62.03834961 84.77368164 62.65576172 C82.52882053 63.9346162 80.2812509 65.20872582 78.03125 66.47851562 C74.47394783 68.48801821 70.93436736 70.5273937 67.3984375 72.57421875 C66.81586685 72.91139923 66.2332962 73.24857971 65.6330719 73.59597778 C65.0562114 73.92991547 64.47935089 74.26385315 63.88500977 74.60791016 C59.64212174 77.06379358 55.39549346 79.51307052 51.14404297 81.95410156 C49.52382916 82.88813203 47.90742828 83.82885534 46.29736328 84.78027344 C41.73171149 87.46484375 41.73171149 87.46484375 39.5234375 87.46484375 C39.77287109 88.02316895 40.02230469 88.58149414 40.27929688 89.15673828 C48.15271976 106.82246584 55.68121593 124.62377266 63.16217041 142.45814514 C67.26461161 152.23652161 71.38440753 162.00756667 75.50756836 171.77722168 C76.74867677 174.71866058 77.98862885 177.66058505 79.22851562 180.60253906 C79.9986327 182.42776189 80.76881198 184.25295848 81.5390625 186.078125 C82.05530182 187.30397057 82.05530182 187.30397057 82.58197021 188.55458069 C84.83397769 193.88619494 87.15510563 199.18389245 89.5234375 204.46484375 C90.07425995 204.21471024 90.6250824 203.96457672 91.19259644 203.7068634 C112.04746737 194.26467714 133.80960229 185.95927994 156.5234375 182.46484375 C157.44302246 182.31821289 158.36260742 182.17158203 159.31005859 182.02050781 C226.03391155 171.83616787 295.73039772 186.12660587 359.5234375 205.46484375 C358.25638431 208.82899926 356.81230557 211.83516164 354.921875 214.890625 C354.43203125 215.68662109 353.9421875 216.48261719 353.4375 217.30273438 C352.92960938 218.11935547 352.42171875 218.93597656 351.8984375 219.77734375 C351.3828125 220.61330078 350.8671875 221.44925781 350.3359375 222.31054688 C349.06856746 224.36415574 347.79765177 226.41547716 346.5234375 228.46484375 C340.87800127 227.86271152 335.56525122 226.84153319 330.08203125 225.390625 C328.44599852 224.96846158 326.80984434 224.54676858 325.17358398 224.12548828 C324.32384003 223.90523987 323.47409607 223.68499146 322.59860229 223.45806885 C235.46380535 200.97043385 152.81766316 197.17536109 72.93603516 244.02783203 C57.00271267 253.51817165 41.55082068 263.59921762 26.5234375 274.46484375 C25.71003906 275.05152832 24.89664062 275.63821289 24.05859375 276.24267578 C14.51213441 283.14802345 5.16119359 290.24626079 -3.9921875 297.6640625 C-7.31363015 300.35052347 -10.6991181 302.94478398 -14.1015625 305.52734375 C-19.67901781 309.77517051 -25.03063697 314.25399321 -30.35546875 318.8125 C-33.20768119 321.25035594 -36.11604003 323.61216713 -39.0390625 325.96484375 C-44.10975801 330.08940365 -48.90848729 334.46100974 -53.69921875 338.90234375 C-56.59021194 341.56970175 -59.53457892 344.16307978 -62.50390625 346.7421875 C-70.37782246 353.61822126 -78.04960709 360.72180538 -85.71289062 367.83056641 C-87.52213396 369.50707179 -89.33527026 371.17930262 -91.1484375 372.8515625 C-98.10308611 379.28488399 -104.93310666 385.80971392 -111.55834961 392.58349609 C-114.30297419 395.37204471 -117.09318667 398.02655431 -120.0703125 400.56640625 C-125.57711491 405.32674712 -130.66914223 410.50814499 -135.80395508 415.66186523 C-137.5355095 417.39877975 -139.27234609 419.13028264 -141.00976562 420.86132812 C-146.10755685 425.95637855 -151.09965769 431.06231427 -155.77905273 436.54907227 C-160.07932603 441.40226435 -164.82999209 445.8521844 -169.44921875 450.3984375 C-173.80281891 454.71010893 -177.97960507 459.08700019 -181.97070312 463.73632812 C-184.5114715 466.65277432 -187.29640073 469.30498532 -190.0703125 471.99609375 C-192.04772264 474.02486519 -193.9106887 476.08436335 -195.765625 478.22265625 C-199.51254733 482.54076803 -203.4151328 486.69486148 -207.3515625 490.83984375 C-212.45224603 496.23503347 -217.51907543 501.64686979 -222.453125 507.1953125 C-223.91440161 508.83431194 -225.39024156 510.46036703 -226.875 512.078125 C-230.79441443 516.35903882 -234.467219 520.49288492 -237.4765625 525.46484375 C-241.13949814 521.02842413 -244.42749187 516.36022804 -247.7265625 511.65234375 C-248.28085938 510.86408203 -248.83515625 510.07582031 -249.40625 509.26367188 C-250.76446095 507.33173388 -252.12118725 505.3987717 -253.4765625 503.46484375 C-252.05223834 500.48667657 -250.69752985 498.48552693 -248.2890625 496.21484375 C-245.84057994 493.83660454 -243.51585197 491.42684916 -241.2890625 488.83984375 C-236.65984385 483.47533533 -231.81617952 478.31109914 -227.00097656 473.11425781 C-224.69125226 470.61513908 -222.397067 468.10203304 -220.1015625 465.58984375 C-202.33236733 446.20059171 -202.33236733 446.20059171 -194.33786869 438.35860348 C-192.53422063 436.5235072 -190.85345687 434.6302765 -189.18003845 432.67640686 C-185.81270549 428.80503153 -182.29172758 425.13812272 -178.65844727 421.51733398 C-178.01678619 420.87392059 -177.37512512 420.2305072 -176.71401978 419.56759644 C-174.61782315 417.46704217 -172.51804148 415.37011599 -170.41796875 413.2734375 C-168.94483605 411.79963001 -167.47185173 410.32567421 -165.99900818 408.85157776 C-162.92177759 405.77287844 -159.84276006 402.69598064 -156.76245117 399.62036133 C-152.83087578 395.69448269 -148.90380756 391.76413105 -144.97807407 387.83241177 C-141.94028509 384.79099488 -138.9001006 381.75198149 -135.85920525 378.71367073 C-134.41091632 377.2660449 -132.96335882 375.8176869 -131.51657295 374.36855888 C-129.48816151 372.33758414 -127.45653104 370.30988241 -125.42407227 368.28295898 C-124.83733231 367.69419479 -124.25059235 367.1054306 -123.64607239 366.49882507 C-119.95978874 362.83095114 -116.14306103 359.36290633 -112.20204067 355.97001743 C-110.197524 354.22143215 -108.32385064 352.37810647 -106.4765625 350.46484375 C-103.39410745 347.34073391 -100.20146478 344.43783287 -96.875 341.578125 C-93.68509297 338.76747401 -90.58400359 335.86604961 -87.4765625 332.96484375 C-82.55042116 328.37390177 -77.59379496 323.84312567 -72.4765625 319.46484375 C-71.44261572 318.57693076 -70.40877117 317.6888987 -69.375 316.80078125 C-66.98161214 314.74582493 -64.58529572 312.69434179 -62.1875 310.64453125 C-59.7683487 308.57513677 -57.35717517 306.49707068 -54.953125 304.41015625 C-48.46887561 298.79368407 -41.90255495 293.33797282 -35.09375 288.11694336 C-32.00051069 285.73181146 -29.22597417 283.23081814 -26.4765625 280.46484375 C-22.90019207 277.56732141 -19.21880648 274.80636907 -15.54736328 272.03076172 C-14.10928244 270.94329997 -12.67287624 269.85362151 -11.23779297 268.76220703 C9.95343637 252.65055616 31.68619087 237.5635593 54.4609375 223.77734375 C55.76804687 222.98239502 55.76804687 222.98239502 57.1015625 222.17138672 C58.31392578 221.44459717 58.31392578 221.44459717 59.55078125 220.703125 C60.26999756 220.27040283 60.98921387 219.83768066 61.73022461 219.3918457 C63.5234375 218.46484375 63.5234375 218.46484375 65.5234375 218.46484375 C56.07399134 195.67782209 46.50970553 172.94216426 36.83905029 150.24816895 C32.92376721 141.06009883 29.01823586 131.8678893 25.11273193 122.67565918 C23.29031797 118.38650154 21.46741355 114.09755237 19.64453125 109.80859375 C19.03442137 108.37304792 18.42431368 106.93750116 17.81420898 105.50195312 C17.1752771 103.99858398 17.1752771 103.99858398 16.5234375 102.46484375 C8.83039713 106.61235353 1.21896894 110.89279124 -6.36044312 115.24365234 C-8.20310392 116.29971919 -10.048116 117.35156839 -11.89379883 118.40234375 C-17.13794613 121.39019974 -22.37530079 124.38198406 -27.5390625 127.5078125 C-28.61087769 128.14529419 -28.61087769 128.14529419 -29.7043457 128.7956543 C-30.95220634 129.54014223 -32.19152225 130.29928567 -33.41870117 131.07739258 C-37.99249865 133.7754833 -42.30301805 134.20130007 -47.4765625 133.46484375 C-51.57206524 131.37986054 -53.7774121 129.70506592 -55.4765625 125.46484375 C-55.84765625 123.09765625 -55.84765625 123.09765625 -55.9140625 120.58984375 C-55.95402344 119.76742187 -55.99398437 118.945 -56.03515625 118.09765625 C-54.98372698 113.14196863 -52.06737463 110.53485148 -48.01489258 107.80908203 C-44.93122198 105.96207953 -41.80992007 104.20379115 -38.6640625 102.46484375 C-36.92311904 101.48190638 -35.18218699 100.49894778 -33.44210815 99.51448059 C-31.64926392 98.50165916 -29.85379611 97.49360432 -28.05810547 96.48583984 C-22.41288265 93.30960005 -16.8205869 90.04273432 -11.2265625 86.77734375 C-10.23422607 86.20177734 -9.24188965 85.62621094 -8.21948242 85.03320312 C-6.82306519 84.22012695 -6.82306519 84.22012695 -5.3984375 83.390625 C-4.18559082 82.68546753 -4.18559082 82.68546753 -2.94824219 81.96606445 C-0.06598355 80.21547098 2.72854992 78.35116477 5.5234375 76.46484375 C5.12141113 75.49998047 4.71938477 74.53511719 4.30517578 73.54101562 C4.03681412 72.89689728 3.76845245 72.25277893 3.49195862 71.58914185 C2.88332766 70.12853095 2.27454826 68.66798189 1.66563416 67.20748901 C-0.02915657 63.14185735 -1.72124623 59.07513536 -3.40844727 55.00634766 C-6.45184287 47.67384988 -9.50517559 40.35038975 -12.69921875 33.08203125 C-13.16408691 32.01146484 -13.62895508 30.94089844 -14.10791016 29.83789062 C-14.95087977 27.90299963 -15.80767574 25.9740463 -16.68115234 24.05273438 C-19.60850579 17.27890145 -21.06845038 10.62143988 -18.3515625 3.52734375 C-13.17138108 -2.17085581 -6.90759755 -3.05020881 0 0 Z " fill="#A0C63E" transform="translate(399.4765625,235.53515625)"/>
<path d="M0 0 C5.61183665 4.39846657 7.75559905 9.79637072 10.203125 16.26953125 C10.55260193 17.17249435 10.90207886 18.07545746 11.262146 19.00578308 C12.37069059 21.87569257 13.4667383 24.75018884 14.5625 27.625 C15.31428298 29.57779029 16.06687833 31.53026805 16.8203125 33.48242188 C18.66046968 38.25554623 20.48943798 43.03282158 22.3125 47.8125 C25.19497303 45.06696812 27.5294346 42.26753492 29.78125 38.98828125 C30.42932617 38.04952148 31.07740234 37.11076172 31.74511719 36.14355469 C32.76847168 34.64937012 32.76847168 34.64937012 33.8125 33.125 C35.24451318 31.0531929 36.67680754 28.98158012 38.109375 26.91015625 C40.12924079 23.98098327 42.14816488 21.05116689 44.16601562 18.12060547 C45.79222559 15.76370603 47.42635549 13.41250871 49.0625 11.0625 C49.53880859 10.36680908 50.01511719 9.67111816 50.50585938 8.9543457 C55.65761896 1.57517492 55.65761896 1.57517492 60.4609375 0.1953125 C65.6176763 -0.40178357 68.9236289 -0.35156986 73.3125 2.8125 C76.24818128 6.13445514 77.22626973 8.22805036 77.875 12.625 C77.33504633 21.07368689 70.97130919 27.781164 66.11401367 34.29663086 C61.55383019 40.42284661 57.17272138 46.66780405 52.8125 52.9375 C52.11793701 53.93346191 51.42337402 54.92942383 50.70776367 55.95556641 C49.7232019 57.37361572 49.7232019 57.37361572 48.71875 58.8203125 C48.13416016 59.66223145 47.54957031 60.50415039 46.94726562 61.37158203 C45.31629475 63.80683394 43.81178574 66.29467277 42.3125 68.8125 C43.07147583 68.9915387 43.83045166 69.17057739 44.61242676 69.3550415 C51.79380236 71.05096109 58.97280601 72.7564546 66.14939117 74.47252274 C69.83828728 75.35426189 73.52796465 76.23238152 77.21972656 77.10205078 C80.78799336 77.94277235 84.35381335 78.79323389 87.91819763 79.65026093 C89.27280877 79.97419932 90.62824088 80.29472586 91.98451233 80.61164093 C110.22754093 84.88052631 110.22754093 84.88052631 114.3125 90.625 C115.86654984 95.57853388 115.91186891 99.17212194 114.125 104.0625 C111.98097227 107.31550759 110.97255104 108.43998086 107.3125 109.8125 C99.0084822 110.58826749 91.43593829 108.9944892 83.42578125 106.96875 C82.24275925 106.68020142 81.05973724 106.39165283 79.84086609 106.09436035 C76.09922263 105.1788869 72.36217917 104.24601164 68.625 103.3125 C66.07385258 102.68503856 63.52242255 102.05872494 60.97070312 101.43359375 C54.74797302 99.90648516 48.52891505 98.36510367 42.3125 96.8125 C43.99100533 102.6818795 45.81843116 108.34633238 48.23046875 113.96484375 C48.7684481 115.24898484 49.30553074 116.53350189 49.84179688 117.81835938 C50.66905236 119.7878402 51.50181043 121.75418275 52.3503418 123.71459961 C55.72709787 131.54675697 58.95043535 139.09470393 57.3125 147.8125 C55.61976294 151.25021909 53.2548428 153.22671934 50 155.25 C44.60030825 156.38016804 40.95918896 155.83458281 36.3671875 152.984375 C31.92949125 149.07811432 30.37403812 143.53290292 28.375 138.125 C27.95041504 137.01970947 27.52583008 135.91441895 27.08837891 134.77563477 C26.22798135 132.53253649 25.37472845 130.28668404 24.52880859 128.03808594 C23.08989818 124.22217177 21.60741586 120.42445153 20.11889648 116.62768555 C18.83895465 113.36022721 17.57531186 110.08661154 16.3125 106.8125 C11.898788 110.88607272 8.69592251 115.38875884 5.375 120.375 C4.23257022 122.06434295 3.08931128 123.75312541 1.9453125 125.44140625 C1.35395508 126.31684082 0.76259766 127.19227539 0.15332031 128.09423828 C-2.95548258 132.6848764 -6.0939593 137.25423796 -9.25 141.8125 C-9.83322021 142.66658447 -10.41644043 143.52066895 -11.01733398 144.40063477 C-11.56977783 145.19655029 -12.12222168 145.99246582 -12.69140625 146.8125 C-13.17424072 147.51375 -13.6570752 148.215 -14.15454102 148.9375 C-16.98071734 152.39426607 -19.11983712 153.68221672 -23.5 154.6875 C-27.90108513 155.07269739 -30.85852512 154.0951581 -34.6875 151.8125 C-37.69110666 148.50083112 -38.59676233 146.42749978 -39.25 142 C-38.65894304 132.75169691 -30.96935836 124.98098799 -25.65625 117.84765625 C-21.27285107 111.93553256 -17.15980632 105.8378992 -13.01611328 99.75683594 C-10.85823144 96.59892138 -8.67944978 93.45555113 -6.5 90.3125 C-5.76394531 89.2503125 -5.02789063 88.188125 -4.26953125 87.09375 C-3.74746094 86.3409375 -3.22539063 85.588125 -2.6875 84.8125 C-3.90228027 84.70832764 -5.11706055 84.60415527 -6.36865234 84.49682617 C-12.62515619 83.79658728 -18.67410207 82.32793789 -24.7890625 80.86328125 C-26.02490082 80.56818161 -27.26073914 80.27308197 -28.5340271 79.96903992 C-31.13519668 79.34437838 -33.73547557 78.71676268 -36.33496094 78.08520508 C-39.64697522 77.28201794 -42.96422067 76.50316142 -46.28325844 75.72959614 C-49.476969 74.97934413 -52.66372105 74.20052884 -55.8515625 73.42578125 C-57.03400543 73.15365311 -58.21644836 72.88152496 -59.4347229 72.60115051 C-65.97110329 70.97465007 -71.3672643 69.23622123 -75.6875 63.8125 C-77.30838064 58.94985809 -77.42013309 54.69199923 -75.125 50.0625 C-72.67880291 46.26490731 -70.08611888 44.9662361 -65.6875 43.8125 C-58.25224994 44.29057567 -51.21585894 45.97750268 -43.99609375 47.75390625 C-42.81024185 48.04103989 -41.62438995 48.32817352 -40.40260315 48.62400818 C-36.64211578 49.53580355 -32.88355594 50.45527907 -29.125 51.375 C-26.56457688 51.99725422 -24.00403119 52.61900436 -21.44335938 53.24023438 C-15.18997601 54.75849196 -8.93815415 56.28304739 -2.6875 57.8125 C-3.13665771 56.67707764 -3.58581543 55.54165527 -4.04858398 54.37182617 C-5.71361706 50.16218434 -7.37759785 45.95212724 -9.04125977 41.74194336 C-9.76167529 39.91923852 -10.48237677 38.09664667 -11.20336914 36.27416992 C-12.23919533 33.65573248 -13.27399508 31.03689142 -14.30859375 28.41796875 C-14.63153915 27.60224899 -14.95448456 26.78652924 -15.28721619 25.9460907 C-15.58745193 25.18552872 -15.88768768 24.42496674 -16.19702148 23.64135742 C-16.46127426 22.97295334 -16.72552704 22.30454926 -16.99778748 21.6158905 C-18.91310792 16.60790445 -19.55713031 12.13495957 -18.6875 6.8125 C-14.60525361 -0.38310519 -8.02360076 -3.54531196 0 0 Z " fill="#A1C73F" transform="translate(675.6875,99.1875)"/>
<path d="M0 0 C1 2 1 2 0.22265625 4.3828125 C-0.16019531 5.28773437 -0.54304687 6.19265625 -0.9375 7.125 C-1.31777344 8.03507812 -1.69804688 8.94515625 -2.08984375 9.8828125 C-2.54037109 10.93082031 -2.54037109 10.93082031 -3 12 C-3.99 12 -4.98 12 -6 12 C-6 8.36804504 -5.04546845 7.25286089 -3 4.3125 C-2.443125 3.50425781 -1.88625 2.69601563 -1.3125 1.86328125 C-0.879375 1.24839844 -0.44625 0.63351563 0 0 Z " fill="#5A5D53" transform="translate(965,111)"/>
</svg>
